<svg xmlns="http://www.w3.org/2000/svg" width="526" height="175" viewBox="0 0 526 175">
  <g id="Group_2" data-name="Group 2" transform="translate(0 -797)">
    <path id="Rectangle_3" data-name="Rectangle 3" d="M0,0H491a35,35,0,0,1,35,35v0a35,35,0,0,1-35,35H0a0,0,0,0,1,0,0V0A0,0,0,0,1,0,0Z" transform="translate(0 902)" fill="#2f333b"/>
    <path id="Rectangle_4" data-name="Rectangle 4" d="M0,0H307a35,35,0,0,1,35,35v0a35,35,0,0,1-35,35H0a0,0,0,0,1,0,0V0A0,0,0,0,1,0,0Z" transform="translate(0 797)" fill="#2f333b"/>
  </g>
</svg>
