<svg xmlns="http://www.w3.org/2000/svg" width="526" height="175" viewBox="0 0 526 175">
  <g id="Group_3" data-name="Group 3" transform="translate(-1394 -75)">
    <path id="Rectangle_3" data-name="Rectangle 3" d="M35,0H526a0,0,0,0,1,0,0V70a0,0,0,0,1,0,0H35A35,35,0,0,1,0,35v0A35,35,0,0,1,35,0Z" transform="translate(1394 180)" fill="#2f333b"/>
    <path id="Rectangle_4" data-name="Rectangle 4" d="M35,0H342a0,0,0,0,1,0,0V70a0,0,0,0,1,0,0H35A35,35,0,0,1,0,35v0A35,35,0,0,1,35,0Z" transform="translate(1578 75)" fill="#2f333b"/>
  </g>
</svg>
