<svg xmlns="http://www.w3.org/2000/svg" width="526" height="175" viewBox="0 0 526 175">
  <g id="Group_4" data-name="Group 4" transform="translate(0 -896)">
    <path id="Rectangle_8" data-name="Rectangle 8" d="M0,0H491a35,35,0,0,1,35,35v0a35,35,0,0,1-35,35H0a0,0,0,0,1,0,0V0A0,0,0,0,1,0,0Z" transform="translate(0 1001)" fill="#e5e5e5"/>
    <path id="Rectangle_9" data-name="Rectangle 9" d="M0,0H307a35,35,0,0,1,35,35v0a35,35,0,0,1-35,35H0a0,0,0,0,1,0,0V0A0,0,0,0,1,0,0Z" transform="translate(0 896)" fill="#e5e5e5"/>
  </g>
</svg>
