<svg id="myLogo-transparent" xmlns="http://www.w3.org/2000/svg" width="405.506" height="405.568" viewBox="0 0 405.506 405.568">
  <path id="Path_9" data-name="Path 9" d="M246.036,54.484c99.142,0,179.528,80.383,179.531,179.543A179.549,179.549,0,1,1,246.042,54.484m-.006-23.145a202.765,202.765,0,0,0-143.39,346.084c79.192,79.192,207.588,79.192,286.78,0s79.192-207.588,0-286.78A201.43,201.43,0,0,0,246.036,31.25Z" transform="translate(-43.314 -31.25)" fill="#2187d9"/>
  <path id="Path_10" data-name="Path 10" d="M290.493,152.513c-.2-1.139-4.309-6.3-6.979-9.561s-7.477-6.213-19.352-10.13c-7.317-2.4-13.513-3.009-22.611-3.757h-1.015c-9.667-.783-15.222,0-18.818-.552s-13.157-.73-23.287-6.48h0a87.076,87.076,0,0,1-17.359-11.43,1.988,1.988,0,0,0-.249-.32l-.712-.694C165.689,96.254,159.244,78.539,161.1,77.2c1.3-.944,5.733,6.926,17.394,13.3a65.873,65.873,0,0,0,21.364,6.819h.2c1.549.267,3.151.552,4.807.677,5.341.392,10.682,1.78,24.177,2.154,19.085,1.1,18.142.142,23.554,1.122,6.943,1.264,21.774,3.97,31.121,16.433,9.1,12.106,7.709,26.385,7.121,32.242C290.742,150.8,290.635,151.676,290.493,152.513Z" transform="translate(48.356 4.551)" fill="#2187d9"/>
  <path id="Path_11" data-name="Path 11" d="M301.573,123.54a54.284,54.284,0,0,1-7.121,15.293,56.775,56.775,0,0,1-15.738,15.24,50.721,50.721,0,0,1-9.169,4.629c-15.6,4.967-32.207-.5-47.2-5.608-11.768-4.38-22.255-14.4-35.376-15.792a38.631,38.631,0,0,0-8.225-.267,34,34,0,0,0-22.4,10.468,32.49,32.49,0,0,0-4.326,6.534,32.047,32.047,0,0,0-2.243,6.035c-4.7,14.635,4.932,32.046,19.958,33.649a24.642,24.642,0,0,0,5.84,0,20.207,20.207,0,0,0,10.362-4.326,16.877,16.877,0,0,0,3.668-4.308c6.018-8.261-.605-16.557-6.783-23.145a2.35,2.35,0,0,1,.908-4.041,15.115,15.115,0,0,1,17.056,7.282,30.124,30.124,0,0,1-4.736,31.441,29.073,29.073,0,0,1-9.1,7.121,42.623,42.623,0,0,1-13.549,3.418,35.608,35.608,0,0,1-6.89-.107c-4.219.463-7.9-2.083-11.768-3.81,3.685,2.546,7.9,2.653,12.213,3.418a35.36,35.36,0,0,0,5.662,0,32.046,32.046,0,0,0,19.993-8.9,24.765,24.765,0,0,0,4.7-6.659c0-2.884,3.116-5.573,2.047-8.368a20.741,20.741,0,0,1-9.382,9.685,45.927,45.927,0,0,1-5.822,3.454,26.955,26.955,0,0,1-15.4,2.3c-19.993-2.243-29.785-26.581-20.866-43.53a32.421,32.421,0,0,1,4.237-7,36.871,36.871,0,0,1,20.3-12.231c2.635-.677,5.822-1.46,8.546-1.869,8.813-1.3,15.578-1,25.139-2.208,17.109-2.19,54.532,1.656,61.049,2.012,0,0,2.208,0,7.851-.552,7.46-.748,15.151-1.638,20.4-5.056C298.333,125.872,300.968,123.967,301.573,123.54Z" transform="translate(35.708 40.77)" fill="#2187d9"/>
  <path id="Path_12" data-name="Path 12" d="M176.806,166.8c0,.249-.57-.748-.57-.748-9.151,14.083-20.723,27.613-28.771,42.853-1.282,2.065-2.493,4.006-3.561,5.59a42.909,42.909,0,0,1-2.4,3.561c-1.228,1.691-2.546,3.276-2.546,3.276l-.552.677a99.842,99.842,0,0,1-10.023,10.308c-3.952,2.938-5.341,4.113-6.73,5.181a129.609,129.609,0,0,1-25.37,15.881c22.094-17.2,34.61-31.032,42.088-41.643,1.068-1.513,2.03-2.955,2.9-4.344,11.056-18.747,23.554-36.319,34.61-55.066.89,3.561-.837,7.46.445,11.145C176.5,164.65,176.645,165.754,176.806,166.8Z" transform="translate(-1.982 63.237)" fill="#2187d9"/>
  <path id="Path_13" data-name="Path 13" d="M131.948,193.509a40.129,40.129,0,0,0-9.329-13.175c-3.561-3.294-9.382-8.742-17.91-9.169-7.121-.356-12.463,3.027-16.575,5.59A40.948,40.948,0,0,0,77.7,186.3c1.246-11.911,16.023-18.979,27.257-18.053s21.631,7.282,28.842,16.255C133.176,187.456,132.571,190.5,131.948,193.509Z" transform="translate(-16.481 75.593)" fill="#2187d9"/>
</svg>
